<svg width="21" height="20" viewBox="0 0 21 20" fill="none" xmlns="http://www.w3.org/2000/svg">
<path d="M10.161 15.9375C9.78601 16.0938 9.34851 16 9.06726 15.7188L3.56726 10.7188C3.37976 10.5312 3.28601 10.2812 3.28601 10C3.28601 9.75 3.37976 9.5 3.56726 9.3125L9.06726 4.3125C9.34851 4.03125 9.78601 3.9375 10.161 4.09375C10.536 4.25 10.786 4.625 10.786 5V7.5H15.786C16.5985 7.5 17.286 8.1875 17.286 9V11C17.286 11.8438 16.5985 12.5 15.786 12.5H10.786V15C10.786 15.4062 10.536 15.7812 10.161 15.9375ZM4.97351 10L9.28601 13.8125V11H15.786V9H9.28601V6.21875L4.97351 10Z" fill="#505F79"/>
</svg>
