<svg width="25" height="15" viewBox="0 0 25 15" fill="none" xmlns="http://www.w3.org/2000/svg">
<path d="M22.5 0H2.46094C1.09375 0 0 1.13281 0 2.5V12.5C0 13.9062 1.09375 15 2.46094 15H22.5C23.8672 15 25 13.9062 25 12.5V2.5C25 1.13281 23.8672 0 22.5 0ZM23.75 12.5C23.75 13.2031 23.1641 13.75 22.5 13.75H2.46094C1.79688 13.75 1.25 13.2031 1.25 12.5V2.5C1.25 1.83594 1.79688 1.25 2.46094 1.25H22.5C23.1641 1.25 23.75 1.83594 23.75 2.5V12.5ZM6.875 10H6.25V4.375C6.25 4.0625 5.9375 3.75 5.625 3.75H4.375C4.02344 3.75 3.75 4.0625 3.75 4.375C3.75 4.72656 4.02344 5 4.375 5H5V10H4.375C4.02344 10 3.75 10.3125 3.75 10.625C3.75 10.9766 4.02344 11.25 4.375 11.25H6.875C7.1875 11.25 7.5 10.9766 7.5 10.625C7.5 10.3125 7.1875 10 6.875 10ZM13.125 10H10.7812L12.7734 7.89062C13.4375 7.14844 13.6328 6.13281 13.2031 5.23438C12.8125 4.33594 11.9922 3.75 11.0156 3.75C10.1953 3.75 9.41406 4.25781 9.02344 5.07812C8.86719 5.39062 8.98438 5.78125 9.29688 5.9375C9.60938 6.09375 9.96094 5.97656 10.1172 5.66406C10.5859 4.72656 11.7188 4.96094 12.0703 5.74219C12.2266 6.09375 12.2656 6.60156 11.8359 7.03125L8.90625 10.2344C8.71094 10.3906 8.67188 10.6641 8.78906 10.8984C8.86719 11.1328 9.10156 11.25 9.375 11.25H13.125C13.4375 11.25 13.75 10.9766 13.75 10.625C13.75 10.3125 13.4375 10 13.125 10Z" fill="#F2F2F2"/>
</svg>
