<svg width="14" height="15" viewBox="0 0 14 15" fill="none" xmlns="http://www.w3.org/2000/svg">
<g id="Group">
<path id="Vector" d="M0.250008 12.7766V10.9414C0.250008 10.8148 0.259561 10.6883 0.278582 10.5643L0.876484 6.61718C1.00146 5.79188 1.71048 5.1828 2.54474 5.1828H11.4323C12.2893 5.1828 12.9985 5.79188 13.1225 6.61718L13.721 10.5643C13.7395 10.6883 13.75 10.8148 13.75 10.9414V12.7766C13.75 13.7073 12.9933 14.4641 12.0625 14.4641H1.9375C1.00542 14.4641 0.25 13.7073 0.25 12.7766H0.250008ZM2.35938 12.7766H11.6406C11.8727 12.7766 12.0625 12.5867 12.0625 12.3547C12.0625 12.1226 11.8727 11.9328 11.6406 11.9328H2.35938C2.12629 11.9328 1.9375 12.1226 1.9375 12.3547C1.9375 12.5867 2.12629 12.7766 2.35938 12.7766ZM3.20312 6.65936C2.85376 6.65936 2.57031 6.94149 2.57031 7.29218C2.57031 7.64286 2.85376 7.92499 3.20312 7.92499C3.55381 7.92499 3.83594 7.64286 3.83594 7.29218C3.83594 6.94149 3.55381 6.65936 3.20312 6.65936ZM5.73438 7.92499C6.08506 7.92499 6.36719 7.64286 6.36719 7.29218C6.36719 6.94149 6.08506 6.65936 5.73438 6.65936C5.38369 6.65936 5.10156 6.94149 5.10156 7.29218C5.10156 7.64286 5.38369 7.92499 5.73438 7.92499ZM4.46875 8.76874C4.11807 8.76874 3.83594 9.05087 3.83594 9.40155C3.83594 9.75223 4.11807 10.0344 4.46875 10.0344C4.81943 10.0344 5.10156 9.75223 5.10156 9.40155C5.10156 9.05087 4.81943 8.76874 4.46875 8.76874ZM8.26562 7.92499C8.61631 7.92499 8.89844 7.64286 8.89844 7.29218C8.89844 6.94149 8.61631 6.65936 8.26562 6.65936C7.91494 6.65936 7.63281 6.94149 7.63281 7.29218C7.63281 7.64286 7.91494 7.92499 8.26562 7.92499ZM7 8.76874C6.64932 8.76874 6.36719 9.05087 6.36719 9.40155C6.36719 9.75223 6.64932 10.0344 7 10.0344C7.35068 10.0344 7.63281 9.75223 7.63281 9.40155C7.63281 9.05087 7.35068 8.76874 7 8.76874ZM10.7969 7.92499C11.1476 7.92499 11.4297 7.64286 11.4297 7.29218C11.4297 6.94149 11.1476 6.65936 10.7969 6.65936C10.4462 6.65936 10.1641 6.94149 10.1641 7.29218C10.1641 7.64286 10.4462 7.92499 10.7969 7.92499ZM9.53125 8.76874C9.18057 8.76874 8.89844 9.05087 8.89844 9.40155C8.89844 9.75223 9.18057 10.0344 9.53125 10.0344C9.88193 10.0344 10.1641 9.75223 10.1641 9.40155C10.1641 9.05087 9.88193 8.76874 9.53125 8.76874Z" fill="#5A6168"/>
<path id="Vector_2" opacity="0.4" d="M7.84375 0.96405C8.31045 0.96405 8.6875 1.34189 8.6875 1.8078V3.4953C8.6875 3.962 8.31045 4.33905 7.84375 4.33905H5.73438V5.1828H4.04688V4.33905H1.9375C1.47159 4.33905 1.09375 3.962 1.09375 3.4953V1.8078C1.09375 1.34189 1.47159 0.96405 1.9375 0.96405H7.84375ZM2.78125 2.22968C2.54816 2.22968 2.35938 2.41846 2.35938 2.65155C2.35938 2.88464 2.54816 3.07343 2.78125 3.07343H7C7.23203 3.07343 7.42188 2.88464 7.42188 2.65155C7.42188 2.41846 7.23203 2.22968 7 2.22968H2.78125ZM3.83594 7.29218C3.83594 7.64286 3.55381 7.92499 3.20312 7.92499C2.85376 7.92499 2.57031 7.64286 2.57031 7.29218C2.57031 6.94149 2.85376 6.65936 3.20312 6.65936C3.55381 6.65936 3.83594 6.94149 3.83594 7.29218ZM5.10156 7.29218C5.10156 6.94149 5.38369 6.65936 5.73438 6.65936C6.08506 6.65936 6.36719 6.94149 6.36719 7.29218C6.36719 7.64286 6.08506 7.92499 5.73438 7.92499C5.38369 7.92499 5.10156 7.64286 5.10156 7.29218ZM5.10156 9.40155C5.10156 9.75223 4.81943 10.0344 4.46875 10.0344C4.11807 10.0344 3.83594 9.75223 3.83594 9.40155C3.83594 9.05087 4.11807 8.76874 4.46875 8.76874C4.81943 8.76874 5.10156 9.05087 5.10156 9.40155ZM7.63281 7.29218C7.63281 6.94149 7.91494 6.65936 8.26562 6.65936C8.61631 6.65936 8.89844 6.94149 8.89844 7.29218C8.89844 7.64286 8.61631 7.92499 8.26562 7.92499C7.91494 7.92499 7.63281 7.64286 7.63281 7.29218ZM7.63281 9.40155C7.63281 9.75223 7.35068 10.0344 7 10.0344C6.64932 10.0344 6.36719 9.75223 6.36719 9.40155C6.36719 9.05087 6.64932 8.76874 7 8.76874C7.35068 8.76874 7.63281 9.05087 7.63281 9.40155ZM10.1641 7.29218C10.1641 6.94149 10.4462 6.65936 10.7969 6.65936C11.1476 6.65936 11.4297 6.94149 11.4297 7.29218C11.4297 7.64286 11.1476 7.92499 10.7969 7.92499C10.4462 7.92499 10.1641 7.64286 10.1641 7.29218ZM10.1641 9.40155C10.1641 9.75223 9.88193 10.0344 9.53125 10.0344C9.18057 10.0344 8.89844 9.75223 8.89844 9.40155C8.89844 9.05087 9.18057 8.76874 9.53125 8.76874C9.88193 8.76874 10.1641 9.05087 10.1641 9.40155Z" fill="#5A6168"/>
</g>
</svg>
