<svg width="22" height="19" viewBox="0 0 22 19" fill="none" xmlns="http://www.w3.org/2000/svg">
<path d="M7.19193 9.23077C7.19193 9.71034 6.80612 10.0962 6.32655 10.0962C5.84878 10.0962 5.46116 9.71034 5.46116 9.23077C5.46116 8.7512 5.84878 8.36539 6.32655 8.36539C6.80612 8.36539 7.19193 8.7512 7.19193 9.23077ZM8.9227 9.23077C8.9227 8.7512 9.30852 8.36539 9.78809 8.36539C10.2677 8.36539 10.6535 8.7512 10.6535 9.23077C10.6535 9.71034 10.2677 10.0962 9.78809 10.0962C9.30852 10.0962 8.9227 9.71034 8.9227 9.23077ZM8.9227 12.1154C8.9227 12.595 8.53688 12.9808 8.05732 12.9808C7.57775 12.9808 7.19193 12.595 7.19193 12.1154C7.19193 11.6358 7.57775 11.25 8.05732 11.25C8.53688 11.25 8.9227 11.6358 8.9227 12.1154ZM12.3842 9.23077C12.3842 8.7512 12.7701 8.36539 13.2496 8.36539C13.7292 8.36539 14.115 8.7512 14.115 9.23077C14.115 9.71034 13.7292 10.0962 13.2496 10.0962C12.7701 10.0962 12.3842 9.71034 12.3842 9.23077ZM12.3842 12.1154C12.3842 12.595 11.9984 12.9808 11.5189 12.9808C11.0393 12.9808 10.6535 12.595 10.6535 12.1154C10.6535 11.6358 11.0393 11.25 11.5189 11.25C11.9984 11.25 12.3842 11.6358 12.3842 12.1154ZM15.8458 9.23077C15.8458 8.7512 16.2316 8.36539 16.7112 8.36539C17.1907 8.36539 17.5765 8.7512 17.5765 9.23077C17.5765 9.71034 17.1907 10.0962 16.7112 10.0962C16.2316 10.0962 15.8458 9.71034 15.8458 9.23077ZM15.8458 12.1154C15.8458 12.595 15.46 12.9808 14.9804 12.9808C14.5008 12.9808 14.115 12.595 14.115 12.1154C14.115 11.6358 14.5008 11.25 14.9804 11.25C15.46 11.25 15.8458 11.6358 15.8458 12.1154ZM12.0958 0C13.0513 0 13.8265 0.77488 13.8265 1.73077V2.88462C13.8265 3.84014 13.0513 4.61539 12.0958 4.61539H9.21116V5.76923H17.5946C18.7412 5.76923 19.7148 6.61298 19.877 7.7488L20.728 13.6839C20.7424 13.7921 20.7496 13.9002 20.7496 14.0084V16.1538C20.7496 17.4267 19.7148 18.4615 18.4419 18.4615H4.59578C3.32114 18.4615 2.28809 17.4267 2.28809 16.1538V14.0084C2.28809 13.9002 2.29584 13.7921 2.31128 13.6839L3.15888 7.7488C3.32114 6.61298 4.29506 5.76923 5.44349 5.76923H8.05732V4.61539H5.1727C4.21681 4.61539 3.44193 3.84014 3.44193 2.88462V1.73077C3.44193 0.77488 4.21681 0 5.1727 0H12.0958ZM12.0958 1.15385H5.1727C4.85395 1.15385 4.59578 1.41202 4.59578 1.73077V2.88462C4.59578 3.20337 4.85395 3.46154 5.1727 3.46154H12.0958C12.4131 3.46154 12.6727 3.20337 12.6727 2.88462V1.73077C12.6727 1.41202 12.4131 1.15385 12.0958 1.15385ZM4.59578 17.3077H18.4419C19.0802 17.3077 19.5958 16.7921 19.5958 16.1538V15H3.44193V16.1538C3.44193 16.7921 3.95864 17.3077 4.59578 17.3077ZM17.5946 6.92308H5.44349C4.8691 6.92308 4.38232 7.34495 4.30119 7.91466L3.45347 13.8462H19.585L18.7376 7.91466C18.6547 7.34495 18.1679 6.92308 17.5946 6.92308Z" fill="#282D31"/>
<rect x="0.937876" y="3.09276" width="2.2" height="24.6293" rx="1.1" transform="rotate(-50.706 0.937876 3.09276)" fill="#282D31" stroke="#EBEFF2"/>
</svg>
