<svg width="19" height="19" viewBox="0 0 19 19" fill="none" xmlns="http://www.w3.org/2000/svg">
<path d="M5.19193 9.23077C5.19193 9.71034 4.80612 10.0962 4.32655 10.0962C3.84878 10.0962 3.46116 9.71034 3.46116 9.23077C3.46116 8.7512 3.84878 8.36539 4.32655 8.36539C4.80612 8.36539 5.19193 8.7512 5.19193 9.23077ZM6.9227 9.23077C6.9227 8.7512 7.30852 8.36539 7.78809 8.36539C8.26765 8.36539 8.65347 8.7512 8.65347 9.23077C8.65347 9.71034 8.26765 10.0962 7.78809 10.0962C7.30852 10.0962 6.9227 9.71034 6.9227 9.23077ZM6.9227 12.1154C6.9227 12.595 6.53688 12.9808 6.05732 12.9808C5.57775 12.9808 5.19193 12.595 5.19193 12.1154C5.19193 11.6358 5.57775 11.25 6.05732 11.25C6.53688 11.25 6.9227 11.6358 6.9227 12.1154ZM10.3842 9.23077C10.3842 8.7512 10.7701 8.36539 11.2496 8.36539C11.7292 8.36539 12.115 8.7512 12.115 9.23077C12.115 9.71034 11.7292 10.0962 11.2496 10.0962C10.7701 10.0962 10.3842 9.71034 10.3842 9.23077ZM10.3842 12.1154C10.3842 12.595 9.99842 12.9808 9.51886 12.9808C9.03929 12.9808 8.65347 12.595 8.65347 12.1154C8.65347 11.6358 9.03929 11.25 9.51886 11.25C9.99842 11.25 10.3842 11.6358 10.3842 12.1154ZM13.8458 9.23077C13.8458 8.7512 14.2316 8.36539 14.7112 8.36539C15.1907 8.36539 15.5765 8.7512 15.5765 9.23077C15.5765 9.71034 15.1907 10.0962 14.7112 10.0962C14.2316 10.0962 13.8458 9.71034 13.8458 9.23077ZM13.8458 12.1154C13.8458 12.595 13.46 12.9808 12.9804 12.9808C12.5008 12.9808 12.115 12.595 12.115 12.1154C12.115 11.6358 12.5008 11.25 12.9804 11.25C13.46 11.25 13.8458 11.6358 13.8458 12.1154ZM10.0958 0C11.0513 0 11.8265 0.77488 11.8265 1.73077V2.88462C11.8265 3.84014 11.0513 4.61539 10.0958 4.61539H7.21116V5.76923H15.5946C16.7412 5.76923 17.7148 6.61298 17.877 7.7488L18.728 13.6839C18.7424 13.7921 18.7496 13.9002 18.7496 14.0084V16.1538C18.7496 17.4267 17.7148 18.4615 16.4419 18.4615H2.59578C1.32114 18.4615 0.288086 17.4267 0.288086 16.1538V14.0084C0.288086 13.9002 0.295838 13.7921 0.311278 13.6839L1.15888 7.7488C1.32114 6.61298 2.29506 5.76923 3.44349 5.76923H6.05732V4.61539H3.1727C2.21681 4.61539 1.44193 3.84014 1.44193 2.88462V1.73077C1.44193 0.77488 2.21681 0 3.1727 0H10.0958ZM10.0958 1.15385H3.1727C2.85395 1.15385 2.59578 1.41202 2.59578 1.73077V2.88462C2.59578 3.20337 2.85395 3.46154 3.1727 3.46154H10.0958C10.4131 3.46154 10.6727 3.20337 10.6727 2.88462V1.73077C10.6727 1.41202 10.4131 1.15385 10.0958 1.15385ZM2.59578 17.3077H16.4419C17.0802 17.3077 17.5958 16.7921 17.5958 16.1538V15H1.44193V16.1538C1.44193 16.7921 1.95864 17.3077 2.59578 17.3077ZM15.5946 6.92308H3.44349C2.8691 6.92308 2.38232 7.34495 2.30119 7.91466L1.45347 13.8462H17.585L16.7376 7.91466C16.6547 7.34495 16.1679 6.92308 15.5946 6.92308Z" fill="#282D31"/>
</svg>
