<svg width="20" height="20" viewBox="0 0 20 20" fill="none" xmlns="http://www.w3.org/2000/svg">
<g clip-path="url(#clip0_2048_60613)">
<path d="M5.67313 10.0003C5.67313 10.4799 5.28732 10.8657 4.80775 10.8657C4.32998 10.8657 3.94236 10.4799 3.94236 10.0003C3.94236 9.52073 4.32998 9.13492 4.80775 9.13492C5.28732 9.13492 5.67313 9.52073 5.67313 10.0003ZM7.4039 10.0003C7.4039 9.52073 7.78972 9.13492 8.26929 9.13492C8.74886 9.13492 9.13467 9.52073 9.13467 10.0003C9.13467 10.4799 8.74886 10.8657 8.26929 10.8657C7.78972 10.8657 7.4039 10.4799 7.4039 10.0003ZM7.4039 12.8849C7.4039 13.3645 7.01809 13.7503 6.53852 13.7503C6.05895 13.7503 5.67313 13.3645 5.67313 12.8849C5.67313 12.4053 6.05895 12.0195 6.53852 12.0195C7.01809 12.0195 7.4039 12.4053 7.4039 12.8849ZM10.8654 10.0003C10.8654 9.52073 11.2513 9.13492 11.7308 9.13492C12.2104 9.13492 12.5962 9.52073 12.5962 10.0003C12.5962 10.4799 12.2104 10.8657 11.7308 10.8657C11.2513 10.8657 10.8654 10.4799 10.8654 10.0003ZM10.8654 12.8849C10.8654 13.3645 10.4796 13.7503 10.0001 13.7503C9.52049 13.7503 9.13467 13.3645 9.13467 12.8849C9.13467 12.4053 9.52049 12.0195 10.0001 12.0195C10.4796 12.0195 10.8654 12.4053 10.8654 12.8849ZM14.327 10.0003C14.327 9.52073 14.7128 9.13492 15.1924 9.13492C15.6719 9.13492 16.0578 9.52073 16.0578 10.0003C16.0578 10.4799 15.6719 10.8657 15.1924 10.8657C14.7128 10.8657 14.327 10.4799 14.327 10.0003ZM14.327 12.8849C14.327 13.3645 13.9412 13.7503 13.4616 13.7503C12.982 13.7503 12.5962 13.3645 12.5962 12.8849C12.5962 12.4053 12.982 12.0195 13.4616 12.0195C13.9412 12.0195 14.327 12.4053 14.327 12.8849ZM10.577 0.769531C11.5325 0.769531 12.3077 1.54441 12.3077 2.5003V3.65415C12.3077 4.60968 11.5325 5.38492 10.577 5.38492H7.69236V6.53876H16.0758C17.2224 6.53876 18.196 7.38251 18.3582 8.51833L19.2092 14.4534C19.2236 14.5616 19.2308 14.6698 19.2308 14.7779V16.9234C19.2308 18.1962 18.196 19.2311 16.9231 19.2311H3.07698C1.80234 19.2311 0.769287 18.1962 0.769287 16.9234V14.7779C0.769287 14.6698 0.77704 14.5616 0.792479 14.4534L1.64008 8.51833C1.80234 7.38251 2.77626 6.53876 3.9247 6.53876H6.53852V5.38492H3.6539C2.69801 5.38492 1.92313 4.60968 1.92313 3.65415V2.5003C1.92313 1.54441 2.69801 0.769531 3.6539 0.769531H10.577ZM10.577 1.92338H3.6539C3.33515 1.92338 3.07698 2.18155 3.07698 2.5003V3.65415C3.07698 3.9729 3.33515 4.23107 3.6539 4.23107H10.577C10.8943 4.23107 11.1539 3.9729 11.1539 3.65415V2.5003C11.1539 2.18155 10.8943 1.92338 10.577 1.92338ZM3.07698 18.0772H16.9231C17.5614 18.0772 18.077 17.5616 18.077 16.9234V15.7695H1.92313V16.9234C1.92313 17.5616 2.43984 18.0772 3.07698 18.0772ZM16.0758 7.69261H3.9247C3.3503 7.69261 2.86352 8.11448 2.78239 8.6842L1.93467 14.6157H18.0662L17.2188 8.6842C17.1359 8.11448 16.6491 7.69261 16.0758 7.69261Z" fill="#1B1F22"/>
</g>
<defs>
<clipPath id="clip0_2048_60613">
<rect width="20" height="20" fill="white"/>
</clipPath>
</defs>
</svg>
