<svg width="14" height="10" viewBox="0 0 14 10" fill="none" xmlns="http://www.w3.org/2000/svg">
<g id="Group">
<path id="Vector" d="M12.25 0.695129C13.0773 0.695129 13.75 1.36661 13.75 2.19513V8.19513C13.75 9.02247 13.0773 9.69513 12.25 9.69513H1.75C0.921484 9.69513 0.25 9.02247 0.25 8.19513V2.19513C0.25 1.36661 0.921484 0.695129 1.75 0.695129H12.25ZM10.75 2.19513H3.25C3.25 3.02247 2.57852 3.69513 1.75 3.69513V6.69513C2.57852 6.69513 3.25 7.36779 3.25 8.19513H10.75C10.75 7.36779 11.4227 6.69513 12.25 6.69513V3.69513C11.4227 3.69513 10.75 3.02247 10.75 2.19513Z" fill="#5B5B5B"/>
<path id="Vector_2" opacity="0.4" d="M12.25 3.69513V6.69513C11.4227 6.69513 10.75 7.36779 10.75 8.19513H3.25C3.25 7.36779 2.57852 6.69513 1.75 6.69513V3.69513C2.57852 3.69513 3.25 3.02247 3.25 2.19513H10.75C10.75 3.02247 11.4227 3.69513 12.25 3.69513ZM7 7.44513C8.24219 7.44513 9.25 6.43732 9.25 5.19513C9.25 3.93185 8.24219 2.94513 7 2.94513C5.73672 2.94513 4.75 3.93185 4.75 5.19513C4.75 6.43732 5.73672 7.44513 7 7.44513Z" fill="#5B5B5B"/>
</g>
</svg>
