<svg width="14" height="14" viewBox="0 0 14 14" fill="none" xmlns="http://www.w3.org/2000/svg">
<g id="Group">
<path id="Vector" d="M0.250008 12.0625V10.2273C0.250008 10.1008 0.259561 9.97422 0.278582 9.85029L0.876484 5.90312C1.00146 5.07783 1.71048 4.46875 2.54474 4.46875H11.4323C12.2893 4.46875 12.9985 5.07783 13.1225 5.90312L13.721 9.85029C13.7395 9.97422 13.75 10.1008 13.75 10.2273V12.0625C13.75 12.9933 12.9933 13.75 12.0625 13.75H1.9375C1.00542 13.75 0.25 12.9933 0.25 12.0625H0.250008ZM2.35938 12.0625H11.6406C11.8727 12.0625 12.0625 11.8727 12.0625 11.6406C12.0625 11.4086 11.8727 11.2188 11.6406 11.2188H2.35938C2.12629 11.2188 1.9375 11.4086 1.9375 11.6406C1.9375 11.8727 2.12629 12.0625 2.35938 12.0625ZM3.20312 5.94531C2.85376 5.94531 2.57031 6.22744 2.57031 6.57812C2.57031 6.92881 2.85376 7.21094 3.20312 7.21094C3.55381 7.21094 3.83594 6.92881 3.83594 6.57812C3.83594 6.22744 3.55381 5.94531 3.20312 5.94531ZM5.73438 7.21094C6.08506 7.21094 6.36719 6.92881 6.36719 6.57812C6.36719 6.22744 6.08506 5.94531 5.73438 5.94531C5.38369 5.94531 5.10156 6.22744 5.10156 6.57812C5.10156 6.92881 5.38369 7.21094 5.73438 7.21094ZM4.46875 8.05469C4.11807 8.05469 3.83594 8.33682 3.83594 8.6875C3.83594 9.03818 4.11807 9.32031 4.46875 9.32031C4.81943 9.32031 5.10156 9.03818 5.10156 8.6875C5.10156 8.33682 4.81943 8.05469 4.46875 8.05469ZM8.26562 7.21094C8.61631 7.21094 8.89844 6.92881 8.89844 6.57812C8.89844 6.22744 8.61631 5.94531 8.26562 5.94531C7.91494 5.94531 7.63281 6.22744 7.63281 6.57812C7.63281 6.92881 7.91494 7.21094 8.26562 7.21094ZM7 8.05469C6.64932 8.05469 6.36719 8.33682 6.36719 8.6875C6.36719 9.03818 6.64932 9.32031 7 9.32031C7.35068 9.32031 7.63281 9.03818 7.63281 8.6875C7.63281 8.33682 7.35068 8.05469 7 8.05469ZM10.7969 7.21094C11.1476 7.21094 11.4297 6.92881 11.4297 6.57812C11.4297 6.22744 11.1476 5.94531 10.7969 5.94531C10.4462 5.94531 10.1641 6.22744 10.1641 6.57812C10.1641 6.92881 10.4462 7.21094 10.7969 7.21094ZM9.53125 8.05469C9.18057 8.05469 8.89844 8.33682 8.89844 8.6875C8.89844 9.03818 9.18057 9.32031 9.53125 9.32031C9.88193 9.32031 10.1641 9.03818 10.1641 8.6875C10.1641 8.33682 9.88193 8.05469 9.53125 8.05469Z" fill="#DA1E28"/>
<path id="Vector_2" opacity="0.4" d="M7.84375 0.25C8.31045 0.25 8.6875 0.627842 8.6875 1.09375V2.78125C8.6875 3.24795 8.31045 3.625 7.84375 3.625H5.73438V4.46875H4.04688V3.625H1.9375C1.47159 3.625 1.09375 3.24795 1.09375 2.78125V1.09375C1.09375 0.627842 1.47159 0.25 1.9375 0.25H7.84375ZM2.78125 1.51562C2.54816 1.51562 2.35938 1.70441 2.35938 1.9375C2.35938 2.17059 2.54816 2.35938 2.78125 2.35938H7C7.23203 2.35938 7.42188 2.17059 7.42188 1.9375C7.42188 1.70441 7.23203 1.51562 7 1.51562H2.78125ZM3.83594 6.57812C3.83594 6.92881 3.55381 7.21094 3.20312 7.21094C2.85376 7.21094 2.57031 6.92881 2.57031 6.57812C2.57031 6.22744 2.85376 5.94531 3.20312 5.94531C3.55381 5.94531 3.83594 6.22744 3.83594 6.57812ZM5.10156 6.57812C5.10156 6.22744 5.38369 5.94531 5.73438 5.94531C6.08506 5.94531 6.36719 6.22744 6.36719 6.57812C6.36719 6.92881 6.08506 7.21094 5.73438 7.21094C5.38369 7.21094 5.10156 6.92881 5.10156 6.57812ZM5.10156 8.6875C5.10156 9.03818 4.81943 9.32031 4.46875 9.32031C4.11807 9.32031 3.83594 9.03818 3.83594 8.6875C3.83594 8.33682 4.11807 8.05469 4.46875 8.05469C4.81943 8.05469 5.10156 8.33682 5.10156 8.6875ZM7.63281 6.57812C7.63281 6.22744 7.91494 5.94531 8.26562 5.94531C8.61631 5.94531 8.89844 6.22744 8.89844 6.57812C8.89844 6.92881 8.61631 7.21094 8.26562 7.21094C7.91494 7.21094 7.63281 6.92881 7.63281 6.57812ZM7.63281 8.6875C7.63281 9.03818 7.35068 9.32031 7 9.32031C6.64932 9.32031 6.36719 9.03818 6.36719 8.6875C6.36719 8.33682 6.64932 8.05469 7 8.05469C7.35068 8.05469 7.63281 8.33682 7.63281 8.6875ZM10.1641 6.57812C10.1641 6.22744 10.4462 5.94531 10.7969 5.94531C11.1476 5.94531 11.4297 6.22744 11.4297 6.57812C11.4297 6.92881 11.1476 7.21094 10.7969 7.21094C10.4462 7.21094 10.1641 6.92881 10.1641 6.57812ZM10.1641 8.6875C10.1641 9.03818 9.88193 9.32031 9.53125 9.32031C9.18057 9.32031 8.89844 9.03818 8.89844 8.6875C8.89844 8.33682 9.18057 8.05469 9.53125 8.05469C9.88193 8.05469 10.1641 8.33682 10.1641 8.6875Z" fill="#DA1E28"/>
</g>
</svg>
