<svg width="21" height="20" viewBox="0 0 21 20" fill="none" xmlns="http://www.w3.org/2000/svg">
<path d="M15.4641 13.7188C15.7453 14.0312 15.7453 14.5 15.4641 14.7812C15.1516 15.0938 14.6828 15.0938 14.4016 14.7812L10.7141 11.0625L6.9953 14.7812C6.6828 15.0938 6.21405 15.0938 5.9328 14.7812C5.6203 14.5 5.6203 14.0312 5.9328 13.7188L9.65155 10L5.9328 6.28125C5.6203 5.96875 5.6203 5.5 5.9328 5.21875C6.21405 4.90625 6.6828 4.90625 6.96405 5.21875L10.7141 8.96875L14.4328 5.25C14.7141 4.9375 15.1828 4.9375 15.4641 5.25C15.7766 5.53125 15.7766 6 15.4641 6.3125L11.7453 10L15.4641 13.7188Z" fill="#505F79"/>
</svg>
