<svg width="20" height="20" viewBox="0 0 20 20" fill="none" xmlns="http://www.w3.org/2000/svg">
<path d="M14.6186 8.46429L13.1379 9.99955L14.6186 11.506C14.9456 11.8072 14.9456 12.2944 14.6186 12.5669C14.3462 12.8938 13.859 12.8938 13.5577 12.5669L12.0513 11.0861L10.5161 12.5669C10.2436 12.8938 9.75647 12.8938 9.45519 12.5669C9.15711 12.2944 9.15711 11.8072 9.45519 11.506L10.9648 9.99955L9.45519 8.46429C9.15711 8.19186 9.15711 7.70468 9.45519 7.4034C9.75647 7.10532 10.2436 7.10532 10.5161 7.4034L12.0513 8.91301L13.5577 7.4034C13.859 7.10532 14.3462 7.10532 14.6186 7.4034C14.9456 7.70468 14.9456 8.19186 14.6186 8.46429ZM17.1795 3.8457C18.311 3.8457 19.2308 4.76397 19.2308 5.89699V14.1021C19.2308 15.2335 18.311 16.1534 17.1795 16.1534H7.34942C6.80454 16.1534 6.28211 15.9387 5.89749 15.554L1.06967 10.7239C0.877332 10.5316 0.769287 10.272 0.769287 9.99955C0.769287 9.72711 0.877364 9.4675 1.06967 9.27519L5.89749 4.44666C6.28211 4.06173 6.80454 3.8457 7.34942 3.8457H17.1795ZM17.6924 5.89699C17.6924 5.61493 17.4616 5.38416 17.1795 5.38416H7.34942C7.2116 5.38416 7.08018 5.43865 6.98403 5.53481L2.52025 9.99955L6.98403 14.4643C7.08018 14.5604 7.2116 14.6149 7.34942 14.6149H17.1795C17.4616 14.6149 17.6924 14.3842 17.6924 14.1021V5.89699Z" fill="#AD5F00"/>
</svg>
