<!DOCTYPE svg PUBLIC "-//W3C//DTD SVG 1.1//EN" "http://www.w3.org/Graphics/SVG/1.1/DTD/svg11.dtd">
<!-- Uploaded to: SVG Repo, www.svgrepo.com, Transformed by: SVG Repo Mixer Tools -->
<svg fill="#FFFFFF" width="64px" height="64px" viewBox="-10 0 32 32" version="1.1" xmlns="http://www.w3.org/2000/svg" stroke="#FFFFFF">
<g id="SVGRepo_bgCarrier" stroke-width="0"/>
<g id="SVGRepo_tracerCarrier" stroke-linecap="round" stroke-linejoin="round"/>
<g id="SVGRepo_iconCarrier"> <title>euro</title> <path d="M11.040 20.96c-0.6 0.24-1.2 0.32-1.84 0.32-2.12 0-3.92-1.24-4.76-3h4.72c0.48 0 0.84-0.4 0.84-0.84s-0.4-0.84-0.84-0.84h-5.24c-0.040-0.2-0.040-0.4-0.040-0.6s0-0.4 0.040-0.6h5.24c0.48 0 0.84-0.4 0.84-0.84s-0.4-0.84-0.84-0.84h-4.76c0.88-1.76 2.68-3 4.76-3 0.6 0 1.24 0.12 1.84 0.32 0.44 0.16 0.92-0.080 1.080-0.52s-0.080-0.92-0.52-1.080c-0.8-0.28-1.6-0.44-2.44-0.44-3.080 0-5.68 1.96-6.6 4.72h-1.68c-0.48 0-0.84 0.4-0.84 0.84s0.4 0.84 0.84 0.84h1.36c0 0.2-0.040 0.4-0.040 0.6s0 0.4 0.040 0.6h-1.36c-0.48 0-0.84 0.4-0.84 0.84s0.4 0.84 0.84 0.84h1.72c0.96 2.72 3.56 4.72 6.6 4.72 0.84 0 1.64-0.16 2.44-0.44 0.44-0.16 0.68-0.64 0.52-1.080s-0.64-0.68-1.080-0.52z"/> </g>
</svg>