<svg width="20" height="20" viewBox="0 0 20 20" fill="none" xmlns="http://www.w3.org/2000/svg">
<path d="M16.2488 5.28756L12.4086 1.44742C11.9723 1.01263 11.3882 0.769531 10.7752 0.769531H5.3846C4.10996 0.769531 3.0769 1.80258 3.0769 3.07722L3.07714 16.9234C3.07714 18.198 4.11019 19.2311 5.38483 19.2311H14.6154C15.89 19.2311 16.9231 18.198 16.9231 16.9234V6.91737C16.9231 6.30439 16.6815 5.72025 16.2488 5.28756ZM11.1538 1.99838C11.3153 2.05484 11.4663 2.13706 11.5908 2.26156L15.431 6.10171C15.5565 6.22506 15.6394 6.3765 15.6935 6.53876H11.7308C11.4134 6.53876 11.1538 6.27915 11.1538 5.96184V1.99838ZM15.7692 16.9234C15.7692 17.5594 15.2514 18.0772 14.6154 18.0772H5.3846C4.74854 18.0772 4.23075 17.5594 4.23075 16.9234V3.07722C4.23075 2.44117 4.74854 1.92338 5.3846 1.92338H9.99998V5.96184C9.99998 6.91737 10.7752 7.69261 11.7308 7.69261H15.7692V16.9234ZM5.96152 4.23107H8.26921C8.58652 4.23107 8.84614 3.9729 8.84614 3.65415C8.84614 3.3354 8.58652 3.07722 8.26921 3.07722H5.96152C5.64277 3.07722 5.3846 3.3354 5.3846 3.65415C5.3846 3.9729 5.64277 4.23107 5.96152 4.23107ZM8.84614 5.96184C8.84614 5.64453 8.58652 5.38492 8.26921 5.38492H5.96152C5.64277 5.38492 5.3846 5.64453 5.3846 5.96184C5.3846 6.27915 5.64277 6.53876 5.96152 6.53876H8.26921C8.58652 6.53876 8.84614 6.27915 8.84614 5.96184ZM10.3606 11.1866C10.6045 11.2204 10.8726 11.2942 11.1279 11.3725C11.4344 11.4677 11.7556 11.2948 11.8483 10.9899C11.9418 10.6857 11.7706 10.3629 11.4657 10.2695C11.1041 10.1585 10.8181 10.0911 10.5646 10.0529C10.5697 10.0039 10.5769 10.0183 10.5769 10.0003V9.42338C10.5769 9.10448 10.3197 8.84646 10.0007 8.84646C9.6817 8.84646 9.42306 9.10607 9.42306 9.42338V10.0003C9.42306 10.0111 9.42862 10.0201 9.42918 10.0308C8.50719 10.1481 7.86897 10.6241 7.72474 11.3741C7.44472 12.8153 8.91681 13.2001 9.6239 13.385L9.85827 13.4447C11.0211 13.7411 11.1985 13.8875 11.1423 14.1782C11.0758 14.519 10.4291 14.6952 9.63472 14.5827C9.32541 14.5416 8.95142 14.4216 8.62186 14.3162L8.44269 14.2588C8.13901 14.1658 7.81492 14.3314 7.71865 14.6356C7.62288 14.9398 7.79188 15.2637 8.09545 15.3596L8.26921 15.4126C8.63159 15.5287 9.04013 15.6562 9.43388 15.714C9.43388 15.7335 9.42306 15.7515 9.42306 15.7695V16.3465C9.42306 16.6654 9.68195 16.9234 10.0007 16.9234C10.3195 16.9234 10.5769 16.6638 10.5769 16.3465V15.7695C10.5769 15.7512 10.5682 15.7357 10.5665 15.7178C11.4831 15.5978 12.1299 15.1416 12.2749 14.397C12.5583 12.9399 11.1048 12.57 10.1428 12.3255L9.91705 12.2683C8.7852 11.9725 8.82053 11.7888 8.85839 11.5941C8.92186 11.2515 9.57089 11.0784 10.3606 11.1866Z" fill="#5A6168"/>
</svg>
