<svg width="20" height="20" viewBox="0 0 20 20" fill="none" xmlns="http://www.w3.org/2000/svg">
<path d="M17.25 12.75C17.6562 12.75 18 13.0938 18 13.5C18 13.9375 17.6562 14.25 17.25 14.25H4.46875L6.78125 16.75C7.0625 17.0625 7.0625 17.5312 6.75 17.8125C6.59375 17.9375 6.40625 18 6.25 18C6.03125 18 5.84375 17.9375 5.6875 17.7812L2.1875 14.0312C1.90625 13.75 1.90625 13.2812 2.1875 13L5.6875 9.25C5.96875 8.9375 6.4375 8.9375 6.75 9.21875C7.0625 9.5 7.0625 9.96875 6.78125 10.2812L4.46875 12.75H17.25ZM2.75 7.25C2.3125 7.25 2 6.9375 2 6.5C2 6.09375 2.3125 5.75 2.75 5.75H15.5L13.1875 3.28125C12.9062 2.96875 12.9062 2.5 13.2188 2.21875C13.375 2.09375 13.5625 2 13.75 2C13.9375 2 14.125 2.09375 14.2812 2.25L17.7812 6C18.0625 6.28125 18.0625 6.75 17.7812 7.03125L14.2812 10.7812C14 11.0938 13.5312 11.0938 13.2188 10.8125C12.9062 10.5312 12.9062 10.0625 13.1875 9.75L15.5 7.25H2.75Z" fill="white"/>
</svg>
