<svg width="20" height="20" viewBox="0 0 20 20" fill="none" xmlns="http://www.w3.org/2000/svg">
<path d="M6.82719 9.96785C6.82719 8.2479 8.24786 6.79477 10.0003 6.79477C11.7527 6.79477 13.1733 8.2479 13.1733 9.96785C13.1733 11.7527 11.7527 13.1734 10.0003 13.1734C8.24786 13.1734 6.82719 11.7527 6.82719 9.96785ZM10.0003 7.94862C8.88609 7.94862 7.98104 8.88612 7.98104 9.96785C7.98104 11.1145 8.88609 11.9871 10.0003 11.9871C11.1145 11.9871 12.0195 11.1145 12.0195 9.96785C12.0195 8.88612 11.1145 7.94862 10.0003 7.94862ZM3.13741 9.08444L1.6832 7.75751C1.28224 7.39333 1.18993 6.79838 1.46109 6.32963L2.55147 4.4402C2.82262 3.97073 3.38404 3.75331 3.90075 3.91809L5.77431 4.51593C6.25748 4.14309 6.79113 3.83299 7.36085 3.59754L7.78272 1.67674C7.8981 1.14706 8.36686 0.769531 8.91133 0.769531H11.0892C11.6337 0.769531 12.1024 1.14706 12.2178 1.67674L12.6397 3.59754C13.177 3.83299 13.7431 4.14309 14.2262 4.51593L16.1012 3.91809C16.6169 3.75331 17.1794 3.97073 17.4498 4.4402L18.5387 6.32963C18.8092 6.79838 18.719 7.39333 18.3188 7.75751L16.862 9.08444C16.9017 9.38371 16.9233 9.69021 16.9233 9.96785C16.9233 10.3104 16.9017 10.6169 16.862 10.9162L18.3188 12.2431C18.719 12.6073 18.8092 13.2022 18.5387 13.671L17.4498 15.5604C17.1794 16.0291 16.6169 16.2455 16.1012 16.0832L14.2262 15.4847C13.7431 15.8561 13.177 16.1662 12.6397 16.4041L12.2178 18.3224C12.1024 18.8525 11.6337 19.2311 11.0892 19.2311H8.91133C8.36686 19.2311 7.8981 18.8525 7.78272 18.3224L7.36085 16.4041C6.79113 16.1662 6.25748 15.8561 5.77431 15.4847L3.90075 16.0832C3.38404 16.2455 2.82262 16.0291 2.55147 15.5604L1.46109 13.671C1.18993 13.2022 1.28224 12.6073 1.6832 12.2431L3.13741 10.9162C3.09774 10.6169 3.07719 10.3104 3.07719 9.96785C3.07719 9.69021 3.09774 9.38371 3.13741 9.08444ZM6.48104 5.42819L6.00147 5.79958L3.55063 5.01713L2.46024 6.90655L4.36012 8.63732L4.28116 9.23588C4.24798 9.48468 4.23104 9.74069 4.23104 9.96785C4.23104 10.2599 4.24798 10.5159 4.28116 10.7647L4.36012 11.3633L2.46024 13.0941L3.55063 14.9835L6.00147 14.201L6.48104 14.5724C6.88128 14.8825 7.32839 15.1421 7.80075 15.3044L8.35964 15.5676L8.91133 18.0772H11.0892L11.6409 15.5676L12.1673 15.3044C12.6721 15.1421 13.1193 14.8825 13.5195 14.5724L13.9991 14.201L16.451 14.9835L17.5399 13.0941L15.6397 11.3633L15.719 10.7647C15.7515 10.5159 15.7695 10.2599 15.7695 10.0003C15.7695 9.74069 15.7515 9.48468 15.719 9.23588L15.6397 8.63732L17.5399 6.90655L16.451 5.01713L13.9991 5.79958L13.5195 5.42819C13.1193 5.11809 12.6721 4.85847 12.1673 4.66376L11.6409 4.43299L11.0892 1.92338H8.91133L8.35964 4.43299L7.80075 4.66376C7.32839 4.85847 6.88128 5.11809 6.48104 5.42819Z" fill="#5A6168"/>
</svg>
