<svg width="30" height="30" viewBox="0 0 20 21" fill="none" xmlns="http://www.w3.org/2000/svg">
<path d="M16 6.5C17.0938 6.5 18 7.40625 18 8.5V10.5C18 11.0625 17.5312 11.5 17 11.5V16.5C17 17.625 16.0938 18.5 15 18.5H5C3.875 18.5 3 17.625 3 16.5V11.5C2.4375 11.5 2 11.0625 2 10.5V8.5C2 7.40625 2.875 6.5 4 6.5H4.375C3.96875 5.75 3.875 4.8125 4.46875 3.8125C4.9375 2.96875 5.84375 2.5 6.8125 2.53125C8.09375 2.53125 8.9375 3.1875 10.0312 4.65625C11.0938 3.1875 11.9062 2.53125 13.1875 2.5C14.1875 2.5 15.0938 2.96875 15.5625 3.8125C16.1562 4.8125 16.0625 5.75 15.6562 6.5H16ZM13.25 4C12.5938 4 12.1562 4.125 10.5312 6.5H13.25C13.9062 6.5 14.5 5.9375 14.5 5.25C14.5 4.5625 13.9062 4 13.25 4ZM6.78125 4C6.09375 4 5.53125 4.5625 5.53125 5.25C5.53125 5.9375 6.09375 6.5 6.78125 6.5H9.5C7.875 4.125 7.40625 4 6.78125 4ZM9 17V11.5H4.5V16.5C4.5 16.7812 4.71875 17 5 17H9ZM15.5 16.5V11.5H11V17H15C15.25 17 15.5 16.7812 15.5 16.5ZM16.5 10V8.5C16.5 8.25 16.25 8 16 8H4C3.71875 8 3.5 8.25 3.5 8.5V10H16.5Z" fill="#505F79"/>
</svg>
