<svg width="16" height="16" viewBox="0 0 16 16" fill="none" xmlns="http://www.w3.org/2000/svg">
<g clip-path="url(#clip0_2047_60182)">
<path d="M7.99997 3.5287L9.1192 1.73937C9.55478 1.04014 10.3221 0.615234 11.1471 0.615234H11.2307C12.5057 0.615234 13.5384 1.6485 13.5384 2.92293C13.5384 3.44245 13.3654 3.921 13.0769 4.30754H14C14.7644 4.30754 15.3846 4.92773 15.3846 5.69216V7.53831C15.3846 8.1412 14.998 8.65466 14.4615 8.84504V13.5383C14.4615 14.5566 13.6336 15.3845 12.6154 15.3845H3.38459C2.36488 15.3845 1.53843 14.5566 1.53843 13.5383V8.84504C1.00074 8.65466 0.615356 8.1412 0.615356 7.53831V5.69216C0.615356 4.92773 1.23526 4.30754 1.99997 4.30754H2.92276C2.63314 3.921 2.46151 3.44245 2.46151 2.92293C2.46151 1.6485 3.49478 0.615234 4.7692 0.615234H4.85286C5.67786 0.615234 6.44516 1.04014 6.88074 1.73937L7.99997 3.5287ZM11.1471 1.53831C10.6394 1.53831 10.1692 1.79908 9.90093 2.2286L8.60286 4.30754H11.2307C11.9952 4.30754 12.6154 3.68735 12.6154 2.92293C12.6154 2.15822 11.9952 1.53831 11.2307 1.53831H11.1471ZM7.39709 4.30754L6.09901 2.2286C5.83074 1.79908 5.36055 1.53831 4.85286 1.53831H4.7692C4.00478 1.53831 3.38459 2.15822 3.38459 2.92293C3.38459 3.68735 4.00478 4.30754 4.7692 4.30754H7.39709ZM1.99997 5.23062C1.74497 5.23062 1.53843 5.43831 1.53843 5.69216V7.53831C1.53843 7.79216 1.74497 7.99985 1.99997 7.99985H7.53843V5.23062H1.99997ZM8.46151 7.99985H14C14.2538 7.99985 14.4615 7.79216 14.4615 7.53831V5.69216C14.4615 5.43831 14.2538 5.23062 14 5.23062H8.46151V7.99985ZM7.53843 8.92293H2.46151V13.5383C2.46151 14.0489 2.87488 14.4614 3.38459 14.4614H7.53843V8.92293ZM8.46151 14.4614H12.6154C13.1259 14.4614 13.5384 14.0489 13.5384 13.5383V8.92293H8.46151V14.4614Z" fill="#F08029"/>
</g>
<defs>
<clipPath id="clip0_2047_60182">
<rect width="16" height="16" fill="white"/>
</clipPath>
</defs>
</svg>
