<svg width="36" height="32" viewBox="0 0 36 32" fill="none" xmlns="http://www.w3.org/2000/svg">
<path d="M24.9589 7.52999L19.0687 13.4282H33.4286C34.8501 13.4282 36 14.5781 36 15.9996C36 17.4212 34.8501 18.5711 33.4286 18.5711H19.0607L24.9573 24.4677C25.4652 24.9675 25.7143 25.6264 25.7143 26.2854C25.7143 26.9443 25.4632 27.6016 24.9609 28.103C23.9565 29.1075 22.3292 29.1075 21.3248 28.103L11.0391 17.8173C10.0346 16.8128 10.0346 15.1856 11.0391 14.1812L21.3248 3.89544C22.3292 2.89097 23.9565 2.89097 24.9609 3.89544C25.9654 4.8999 25.9634 6.52553 24.9589 7.52999Z" fill="#5A6168"/>
<path opacity="0.4" d="M2.57143 0.571289C1.14991 0.571289 0 1.7212 0 3.14272V28.857C0 30.2785 1.14991 31.4284 2.57143 31.4284C3.99295 31.4284 5.14286 30.2785 5.14286 28.857V3.14272C5.14286 1.7212 3.99295 0.571289 2.57143 0.571289Z" fill="#5A6168"/>
</svg>
