<svg width="14" height="12" viewBox="0 0 14 12" fill="none" xmlns="http://www.w3.org/2000/svg">
<g id="Group">
<path id="Vector" d="M4.53343 9.17613L6.74225 6.9643L1.35732 6.9643C0.824248 6.9643 0.393032 6.53309 0.393032 6.00002C0.393032 5.46695 0.824248 5.03573 1.35732 5.03573L6.74526 5.03573L4.53404 2.8245C4.34359 2.63707 4.25017 2.38997 4.25017 2.14287C4.25017 1.89577 4.34434 1.64928 4.53268 1.46124C4.90935 1.08457 5.51957 1.08457 5.89624 1.46124L9.75338 5.31839C10.1301 5.69506 10.1301 6.30527 9.75338 6.68195L5.89624 10.5391C5.51957 10.9158 4.90935 10.9158 4.53268 10.5391C4.15601 10.1624 4.15676 9.55281 4.53343 9.17613Z" fill="#5A6168"/>
<path id="Vector_2" opacity="0.4" d="M12.9287 11.7857C13.4618 11.7857 13.893 11.3545 13.893 10.8214L13.893 1.17856C13.893 0.645494 13.4618 0.214277 12.9287 0.214277C12.3956 0.214277 11.9644 0.645495 11.9644 1.17856L11.9644 10.8214C11.9644 11.3545 12.3957 11.7857 12.9287 11.7857Z" fill="#5A6168"/>
</g>
</svg>
