<svg width="16" height="16" viewBox="0 0 16 16" fill="none" xmlns="http://www.w3.org/2000/svg">
<path d="M8 0.75C4.11719 0.75 1 3.89453 1 7.75C1 11.6328 4.11719 14.75 8 14.75C11.8555 14.75 15 11.6328 15 7.75C15 3.89453 11.8555 0.75 8 0.75ZM8 13.875C4.60938 13.875 1.875 11.1406 1.875 7.75C1.875 4.38672 4.60938 1.625 8 1.625C11.3633 1.625 14.125 4.38672 14.125 7.75C14.125 11.1406 11.3633 13.875 8 13.875ZM8 5.78125C8.35547 5.78125 8.65625 5.50781 8.65625 5.125C8.65625 4.76953 8.35547 4.46875 8 4.46875C7.61719 4.46875 7.34375 4.76953 7.34375 5.125C7.34375 5.50781 7.61719 5.78125 8 5.78125ZM9.3125 10.375H8.4375V7.3125C8.4375 7.09375 8.21875 6.875 8 6.875H7.125C6.87891 6.875 6.6875 7.09375 6.6875 7.3125C6.6875 7.55859 6.87891 7.75 7.125 7.75H7.5625V10.375H6.6875C6.44141 10.375 6.25 10.5938 6.25 10.8125C6.25 11.0586 6.44141 11.25 6.6875 11.25H9.3125C9.53125 11.25 9.75 11.0586 9.75 10.8125C9.75 10.5938 9.53125 10.375 9.3125 10.375Z" fill="#848484"/>
</svg>
