<svg width="19" height="14" viewBox="0 0 19 14" fill="none" xmlns="http://www.w3.org/2000/svg">
<path d="M6.03852 4.69186H6.80775C7.02022 4.69186 7.19236 4.51965 7.19236 4.30724V3.53801C7.19236 3.32561 7.02022 3.1534 6.80775 3.1534H6.03852C5.82611 3.1534 5.6539 3.32561 5.6539 3.53801V4.30724C5.6539 4.51878 5.82698 4.69186 6.03852 4.69186ZM9.11544 7.76878H9.88467C10.0971 7.76878 10.2693 7.59657 10.2693 7.38416V6.61493C10.2693 6.40253 10.0971 6.23032 9.88467 6.23032H9.11544C8.90304 6.23032 8.73083 6.40253 8.73083 6.61493V7.38416C8.73083 7.5957 8.9039 7.76878 9.11544 7.76878ZM6.03852 7.76878H6.80775C7.02022 7.76878 7.19236 7.59657 7.19236 7.38416V6.61493C7.19236 6.40253 7.02022 6.23032 6.80775 6.23032H6.03852C5.82611 6.23032 5.6539 6.40253 5.6539 6.61493V7.38416C5.6539 7.5957 5.82698 7.76878 6.03852 7.76878ZM12.1924 4.69186H12.9616C13.1741 4.69186 13.3462 4.51965 13.3462 4.30724V3.53801C13.3462 3.32561 13.1741 3.1534 12.9616 3.1534H12.1924C11.98 3.1534 11.8077 3.32561 11.8077 3.53801V4.30724C11.8077 4.51878 11.9808 4.69186 12.1924 4.69186ZM9.11544 4.69186H9.88467C10.0971 4.69186 10.2693 4.51965 10.2693 4.30724V3.53801C10.2693 3.32561 10.0971 3.1534 9.88467 3.1534H9.11544C8.90304 3.1534 8.73083 3.32561 8.73083 3.53801V4.30724C8.73083 4.51878 8.9039 4.69186 9.11544 4.69186ZM3.73083 9.30724H2.9616C2.74919 9.30724 2.57698 9.47945 2.57698 9.69186V10.4611C2.57698 10.6735 2.74919 10.8457 2.9616 10.8457H3.73083C3.94329 10.8457 4.11544 10.6735 4.11544 10.4611V9.69186C4.11544 9.48032 3.94236 9.30724 3.73083 9.30724ZM12.1924 7.76878H12.9616C13.1741 7.76878 13.3462 7.59657 13.3462 7.38416V6.61493C13.3462 6.40253 13.1741 6.23032 12.9616 6.23032H12.1924C11.98 6.23032 11.8077 6.40253 11.8077 6.61493V7.38416C11.8077 7.5957 11.9808 7.76878 12.1924 7.76878ZM3.73083 3.1534H2.9616C2.74919 3.1534 2.57698 3.32561 2.57698 3.53801V4.30724C2.57698 4.51965 2.74919 4.69186 2.9616 4.69186H3.73083C3.94329 4.69186 4.11544 4.51965 4.11544 4.30724V3.53801C4.11544 3.32647 3.94236 3.1534 3.73083 3.1534ZM16.0385 6.23032H15.2693C15.0569 6.23032 14.8847 6.40253 14.8847 6.61493V7.38416C14.8847 7.59657 15.0569 7.76878 15.2693 7.76878H16.0385C16.251 7.76878 16.4231 7.59657 16.4231 7.38416V6.61493C16.4231 6.4034 16.2501 6.23032 16.0385 6.23032ZM3.73083 6.23032H2.9616C2.74919 6.23032 2.57698 6.40253 2.57698 6.61493V7.38416C2.57698 7.59657 2.74919 7.76878 2.9616 7.76878H3.73083C3.94329 7.76878 4.11544 7.59657 4.11544 7.38416V6.61493C4.11544 6.4034 3.94236 6.23032 3.73083 6.23032ZM16.6795 0.845703H2.32057C1.18756 0.845703 0.269287 1.76397 0.269287 2.89699V11.1021C0.269287 12.2351 1.18756 13.1534 2.32057 13.1534H16.6795C17.8126 13.1534 18.7308 12.2351 18.7308 11.1021V2.89699C18.7308 1.76397 17.811 0.845703 16.6795 0.845703ZM17.7052 11.1021C17.7052 11.6675 17.2449 12.1278 16.6795 12.1278H2.32057C1.75518 12.1278 1.29493 11.6675 1.29493 11.1021V2.89699C1.29493 2.3316 1.75518 1.87134 2.32057 1.87134H16.6795C17.2449 1.87134 17.7052 2.3316 17.7052 2.89699V11.1021ZM16.0385 3.1534H15.2693C15.0569 3.1534 14.8847 3.32561 14.8847 3.53801V4.30724C14.8847 4.51965 15.0569 4.69186 15.2693 4.69186H16.0385C16.251 4.69186 16.4231 4.51965 16.4231 4.30724V3.53801C16.4231 3.32647 16.2501 3.1534 16.0385 3.1534ZM13.0898 9.56365H5.91031C5.62826 9.56365 5.39749 9.79442 5.39749 10.0765C5.39749 10.3585 5.62685 10.5893 5.91031 10.5893H13.0898C13.3733 10.5893 13.6026 10.3599 13.6026 10.0765C13.6026 9.79301 13.3719 9.56365 13.0898 9.56365ZM16.0385 9.30724H15.2693C15.0569 9.30724 14.8847 9.47945 14.8847 9.69186V10.4611C14.8847 10.6735 15.0569 10.8457 15.2693 10.8457H16.0385C16.251 10.8457 16.4231 10.6735 16.4231 10.4611V9.69186C16.4231 9.48032 16.2501 9.30724 16.0385 9.30724Z" fill="white"/>
</svg>
