<svg width="20" height="20" viewBox="0 0 20 20" fill="none" xmlns="http://www.w3.org/2000/svg">
<g id="Icon/Light/keyboard">
<path id="Vector" d="M6.53876 7.69235H7.30799C7.52046 7.69235 7.69261 7.52013 7.69261 7.30773V6.5385C7.69261 6.3261 7.52046 6.15388 7.30799 6.15388H6.53876C6.32636 6.15388 6.15415 6.3261 6.15415 6.5385V7.30773C6.15415 7.51927 6.32722 7.69235 6.53876 7.69235ZM9.61569 10.7693H10.3849C10.5974 10.7693 10.7695 10.5971 10.7695 10.3847V9.61542C10.7695 9.40302 10.5974 9.23081 10.3849 9.23081H9.61569C9.40328 9.23081 9.23107 9.40302 9.23107 9.61542V10.3847C9.23107 10.5962 9.40415 10.7693 9.61569 10.7693ZM6.53876 10.7693H7.30799C7.52046 10.7693 7.69261 10.5971 7.69261 10.3847V9.61542C7.69261 9.40302 7.52046 9.23081 7.30799 9.23081H6.53876C6.32636 9.23081 6.15415 9.40302 6.15415 9.61542V10.3847C6.15415 10.5962 6.32722 10.7693 6.53876 10.7693ZM12.6926 7.69235H13.4618C13.6743 7.69235 13.8465 7.52013 13.8465 7.30773V6.5385C13.8465 6.3261 13.6743 6.15388 13.4618 6.15388H12.6926C12.4802 6.15388 12.308 6.3261 12.308 6.5385V7.30773C12.308 7.51927 12.4811 7.69235 12.6926 7.69235ZM9.61569 7.69235H10.3849C10.5974 7.69235 10.7695 7.52013 10.7695 7.30773V6.5385C10.7695 6.3261 10.5974 6.15388 10.3849 6.15388H9.61569C9.40328 6.15388 9.23107 6.3261 9.23107 6.5385V7.30773C9.23107 7.51927 9.40415 7.69235 9.61569 7.69235ZM4.23107 12.3077H3.46184C3.24944 12.3077 3.07722 12.4799 3.07722 12.6923V13.4616C3.07722 13.674 3.24944 13.8462 3.46184 13.8462H4.23107C4.44354 13.8462 4.61569 13.674 4.61569 13.4616V12.6923C4.61569 12.4808 4.44261 12.3077 4.23107 12.3077ZM12.6926 10.7693H13.4618C13.6743 10.7693 13.8465 10.5971 13.8465 10.3847V9.61542C13.8465 9.40302 13.6743 9.23081 13.4618 9.23081H12.6926C12.4802 9.23081 12.308 9.40302 12.308 9.61542V10.3847C12.308 10.5962 12.4811 10.7693 12.6926 10.7693ZM4.23107 6.15388H3.46184C3.24944 6.15388 3.07722 6.3261 3.07722 6.5385V7.30773C3.07722 7.52013 3.24944 7.69235 3.46184 7.69235H4.23107C4.44354 7.69235 4.61569 7.52013 4.61569 7.30773V6.5385C4.61569 6.32696 4.44261 6.15388 4.23107 6.15388ZM16.5388 9.23081H15.7695C15.5571 9.23081 15.3849 9.40302 15.3849 9.61542V10.3847C15.3849 10.5971 15.5571 10.7693 15.7695 10.7693H16.5388C16.7512 10.7693 16.9234 10.5971 16.9234 10.3847V9.61542C16.9234 9.40388 16.7503 9.23081 16.5388 9.23081ZM4.23107 9.23081H3.46184C3.24944 9.23081 3.07722 9.40302 3.07722 9.61542V10.3847C3.07722 10.5971 3.24944 10.7693 3.46184 10.7693H4.23107C4.44354 10.7693 4.61569 10.5971 4.61569 10.3847V9.61542C4.61569 9.40388 4.44261 9.23081 4.23107 9.23081ZM17.1798 3.84619H2.82081C1.6878 3.84619 0.769531 4.76446 0.769531 5.89747V14.1026C0.769531 15.2356 1.6878 16.1539 2.82081 16.1539H17.1798C18.3128 16.1539 19.2311 15.2356 19.2311 14.1026V5.89747C19.2311 4.76446 18.3112 3.84619 17.1798 3.84619ZM18.2054 14.1026C18.2054 14.668 17.7452 15.1282 17.1798 15.1282H2.82081C2.25543 15.1282 1.79517 14.668 1.79517 14.1026V5.89747C1.79517 5.33209 2.25543 4.87183 2.82081 4.87183H17.1798C17.7452 4.87183 18.2054 5.33209 18.2054 5.89747V14.1026ZM16.5388 6.15388H15.7695C15.5571 6.15388 15.3849 6.3261 15.3849 6.5385V7.30773C15.3849 7.52013 15.5571 7.69235 15.7695 7.69235H16.5388C16.7512 7.69235 16.9234 7.52013 16.9234 7.30773V6.5385C16.9234 6.32696 16.7503 6.15388 16.5388 6.15388ZM13.59 12.5641H6.41056C6.12851 12.5641 5.89774 12.7949 5.89774 13.077C5.89774 13.359 6.1271 13.5898 6.41056 13.5898H13.59C13.8735 13.5898 14.1029 13.3604 14.1029 13.077C14.1029 12.7935 13.8721 12.5641 13.59 12.5641ZM16.5388 12.3077H15.7695C15.5571 12.3077 15.3849 12.4799 15.3849 12.6923V13.4616C15.3849 13.674 15.5571 13.8462 15.7695 13.8462H16.5388C16.7512 13.8462 16.9234 13.674 16.9234 13.4616V12.6923C16.9234 12.4808 16.7503 12.3077 16.5388 12.3077Z" fill="#5A6168"/>
</g>
</svg>
