<svg width="20" height="20" viewBox="0 0 20 20" fill="none" xmlns="http://www.w3.org/2000/svg">
<path d="M13.25 6.5C13.6562 6.5 14 6.84375 14 7.25C14 7.6875 13.6562 8 13.25 8H6.75C6.3125 8 6 7.6875 6 7.25C6 6.84375 6.3125 6.5 6.75 6.5H13.25ZM10.25 9.5C10.6562 9.5 11 9.84375 11 10.25C11 10.6875 10.6562 11 10.25 11H6.75C6.3125 11 6 10.6875 6 10.25C6 9.84375 6.3125 9.5 6.75 9.5H10.25ZM15.9688 2C17.0938 2 17.9688 2.90625 17.9688 4V12.9375C17.9688 14 17.0625 14.9062 15.9688 14.9062H11.4688L7.5625 17.8438C7.3125 18 6.96875 17.8438 6.96875 17.5312V14.9375H3.96875C2.84375 14.9375 1.96875 14.0625 1.96875 12.9688V4C1.96875 2.90625 2.84375 2 3.96875 2H15.9688ZM16.5 13V4C16.5 3.75 16.25 3.5 16 3.5H4C3.71875 3.5 3.5 3.75 3.5 4V13C3.5 13.2812 3.71875 13.5 4 13.5H8.5V15.375L11 13.5H16C16.25 13.5 16.5 13.2812 16.5 13Z" fill="white"/>
</svg>
