<svg width="28" height="28" viewBox="0 0 28 28" fill="none" xmlns="http://www.w3.org/2000/svg">
<path id="Vector" fill-rule="evenodd" clip-rule="evenodd" d="M14.286 0.666656C6.91626 0.666656 0.952618 6.62699 0.952618 14C0.952618 21.3695 6.91645 27.3333 14.286 27.3333C21.6589 27.3333 27.6193 21.3697 27.6193 14C27.6193 6.62679 21.6591 0.666656 14.286 0.666656ZM9.20262 8.33332C9.2269 8.33199 9.25125 8.33199 9.27553 8.33332C9.36457 8.33265 9.45285 8.34981 9.53514 8.3838C9.61744 8.41779 9.69209 8.46793 9.7547 8.53124L14.286 13.0521L18.8068 8.53124C18.9282 8.4084 19.0925 8.33745 19.2651 8.33332C19.4001 8.32796 19.5336 8.36373 19.6478 8.43592C19.762 8.50811 19.8516 8.61331 19.9047 8.73756C19.9578 8.86181 19.9719 8.99925 19.9451 9.13168C19.9183 9.26412 19.8519 9.3853 19.7547 9.47916L15.2235 14.0104L19.7547 18.5312C19.817 18.5935 19.8663 18.6674 19.9 18.7487C19.9337 18.83 19.9511 18.9172 19.9511 19.0052C19.9511 19.0932 19.9338 19.1804 19.9001 19.2617C19.8664 19.3431 19.817 19.417 19.7548 19.4792C19.6925 19.5415 19.6186 19.5908 19.5373 19.6245C19.456 19.6582 19.3688 19.6755 19.2808 19.6755C19.1927 19.6755 19.1056 19.6582 19.0242 19.6245C18.9429 19.5908 18.869 19.5414 18.8068 19.4792L14.286 14.9479L9.7547 19.4792C9.62899 19.6048 9.45851 19.6754 9.28075 19.6754C9.103 19.6754 8.93252 19.6048 8.80683 19.4791C8.68114 19.3534 8.61052 19.1829 8.61051 19.0052C8.61051 18.8274 8.6811 18.6569 8.80678 18.5312L13.3276 14.0104L8.80678 9.47916C8.71444 9.39099 8.64935 9.27816 8.61926 9.15408C8.58916 9.03001 8.59532 8.89988 8.63701 8.77921C8.6787 8.65853 8.75416 8.55236 8.85443 8.47332C8.95469 8.39427 9.07554 8.34569 9.20262 8.33332Z" fill="#505F79"/>
</svg>
