<svg width="24" height="24" viewBox="0 0 24 24" fill="none" xmlns="http://www.w3.org/2000/svg">
<path d="M12 24C14.3734 24 16.6935 23.2962 18.6668 21.9776C20.6402 20.6591 22.1783 18.7849 23.0865 16.5922C23.9948 14.3995 24.2324 11.9867 23.7694 9.65892C23.3064 7.33115 22.1635 5.19295 20.4853 3.51472C18.807 1.83649 16.6689 0.693604 14.3411 0.230582C12.0133 -0.232441 9.60051 0.00519945 7.4078 0.913451C5.21508 1.8217 3.34094 3.35977 2.02236 5.33316C0.703787 7.30655 0 9.62663 0 12C0 15.1826 1.26428 18.2348 3.51472 20.4853C5.76515 22.7357 8.8174 24 12 24ZM5.77091 12.3164C5.9753 12.1132 6.2518 11.9991 6.54 11.9991C6.8282 11.9991 7.10469 12.1132 7.30909 12.3164L9.81818 14.8255L16.1345 8.50909C16.3432 8.33037 16.6117 8.23699 16.8862 8.24759C17.1608 8.2582 17.4212 8.37201 17.6155 8.5663C17.8098 8.76058 17.9236 9.02102 17.9342 9.29558C17.9448 9.57014 17.8514 9.83858 17.6727 10.0473L10.5818 17.1382C10.3774 17.3414 10.1009 17.4554 9.81273 17.4554C9.52452 17.4554 9.24803 17.3414 9.04363 17.1382L5.77091 13.8655C5.66866 13.764 5.5875 13.6434 5.53212 13.5104C5.47673 13.3775 5.44822 13.2349 5.44822 13.0909C5.44822 12.9469 5.47673 12.8043 5.53212 12.6714C5.5875 12.5384 5.66866 12.4178 5.77091 12.3164Z" fill="#36A93F"/>
</svg>
