<svg width="14" height="13" viewBox="0 0 14 13" fill="none" xmlns="http://www.w3.org/2000/svg">
<g id="Group">
<path id="Vector" d="M12.0625 0.288879C12.9933 0.288879 13.75 1.0443 13.75 1.97638V10.4139C13.75 11.3446 12.9933 12.1014 12.0625 12.1014H1.9375C1.00542 12.1014 0.25 11.3446 0.25 10.4139V1.97638C0.25 1.0443 1.00542 0.288879 1.9375 0.288879H12.0625ZM12.0625 1.97638H1.9375V10.4139H12.0625V1.97638Z" fill="#5B5B5B"/>
<path id="Vector_2" opacity="0.4" d="M3.625 3.66388V1.97638H5.3125V3.66388H12.0625V5.35138H5.3125V7.03888H12.0625V8.72638H5.3125V10.4139H3.625V8.72638H1.9375V7.03888H3.625V5.35138H1.9375V3.66388H3.625Z" fill="#5B5B5B"/>
</g>
</svg>
