<svg xmlns="http://www.w3.org/2000/svg" width="20" height="20" viewBox="0 0 20 20" fill="none">
<g clip-path="url(#clip0_3622_111094)">
<path d="M16.249 5.28769L12.4089 1.44754C11.9726 1.01276 11.3884 0.769657 10.7755 0.769657L5.38484 0.769653C4.1102 0.769653 3.07715 1.80271 3.07715 3.07735L3.07738 16.9235C3.07738 18.1981 4.11044 19.2312 5.38508 19.2312H14.6156C15.8902 19.2312 16.9233 18.1981 16.9233 16.9235V6.91749C16.9233 6.30451 16.6817 5.72038 16.249 5.28769ZM11.1541 1.9985C11.3155 2.05497 11.4665 2.13718 11.5911 2.26169L15.4312 6.10183C15.5567 6.22519 15.6396 6.37663 15.6937 6.53889H11.731C11.4137 6.53889 11.1541 6.27927 11.1541 5.96197V1.9985ZM15.7695 16.9235C15.7695 17.5596 15.2517 18.0774 14.6156 18.0774H5.38484C4.74878 18.0774 4.23099 17.5596 4.23099 16.9235V3.07735C4.23099 2.44129 4.74878 1.9235 5.38484 1.9235H10.0002V5.96197C10.0002 6.91749 10.7755 7.69273 11.731 7.69273H15.7695V16.9235ZM6.53869 10.5773C6.53869 10.8947 6.7983 11.1543 7.11561 11.1543H12.8848C13.2021 11.1543 13.4618 10.8947 13.4618 10.5773C13.4618 10.26 13.2021 10.0004 12.8848 10.0004H7.11561C6.7983 10.0004 6.53869 10.26 6.53869 10.5773ZM12.8848 12.3081H7.11561C6.7983 12.3081 6.53869 12.5677 6.53869 12.885C6.53869 13.2023 6.7983 13.462 7.11561 13.462H12.8848C13.2035 13.462 13.4618 13.2036 13.4618 12.885C13.4618 12.5664 13.2021 12.3081 12.8848 12.3081ZM12.8848 14.6158H7.11561C6.7983 14.6158 6.53869 14.8754 6.53869 15.1927C6.53869 15.51 6.7983 15.7697 7.11561 15.7697H12.8848C13.2035 15.7697 13.4618 15.5113 13.4618 15.1927C13.4618 14.8741 13.2021 14.6158 12.8848 14.6158Z" fill="#505F79"/>
</g>
<defs>
<clipPath id="clip0_3622_111094">
<rect width="20" height="20" fill="white" transform="translate(0 0.000366211)"/>
</clipPath>
</defs>
</svg>