<svg width="21" height="20" viewBox="0 0 21 20" fill="none" xmlns="http://www.w3.org/2000/svg">
<path d="M10.6414 4.09375C11.0164 3.9375 11.4539 4.03125 11.7352 4.3125L17.2352 9.3125C17.4227 9.5 17.5477 9.75 17.5477 10C17.5477 10.2812 17.4227 10.5312 17.2352 10.7188L11.7352 15.7188C11.4539 16 11.0164 16.0938 10.6414 15.9375C10.2664 15.7812 10.0477 15.4062 10.0477 15V12.5H5.04767C4.20392 12.5 3.54767 11.8438 3.54767 11V9C3.54767 8.1875 4.20392 7.5 5.04767 7.5H10.0477V5C10.0477 4.625 10.2664 4.25 10.6414 4.09375ZM15.8289 10L11.5477 6.21875V9H5.04767V11H11.5477V13.8125L15.8289 10Z" fill="white"/>
</svg>
