<svg width="14" height="14" viewBox="0 0 14 14" fill="none" xmlns="http://www.w3.org/2000/svg">
<g id="Group">
<path id="Vector" d="M13.3257 4.8379C13.4127 5.06466 13.3388 5.32042 13.1595 5.48654L12.0178 6.5254C12.0468 6.74425 12.0627 6.96837 12.0627 7.1714C12.0627 7.42189 12.0468 7.64601 12.0178 7.86486L13.1595 8.90372C13.3388 9.06984 13.4127 9.32296 13.3257 9.55236C13.2096 9.86613 13.0699 10.1693 12.9117 10.4568L12.7878 10.6703C12.6137 10.9604 12.4186 11.2346 12.2051 11.4956C12.0468 11.6828 11.7911 11.7487 11.5591 11.6749L10.0904 11.2056C9.73708 11.4772 9.32312 11.7039 8.93025 11.8779L8.60066 13.3835C8.54792 13.6208 8.36335 13.7896 8.12077 13.8528C7.75691 13.9135 7.38249 13.9451 6.97644 13.9451C6.61785 13.9451 6.24343 13.9135 5.87956 13.8528C5.63699 13.7896 5.45242 13.6208 5.39968 13.3835L5.07009 11.8779C4.65349 11.7039 4.26326 11.4772 3.90993 11.2056L2.44234 11.6749C2.20925 11.7487 1.95217 11.6828 1.79608 11.4956C1.58224 11.2346 1.38712 10.9604 1.2131 10.6703L1.0897 10.4568C0.929652 10.1693 0.790433 9.86613 0.673626 9.55236C0.588196 9.3256 0.660179 9.06984 0.841058 8.90372L1.9817 7.86486C1.9527 7.64601 1.93767 7.42189 1.93767 7.19513C1.93767 6.96837 1.9527 6.74425 1.9817 6.5254L0.841058 5.48654C0.660179 5.32042 0.588196 5.0673 0.673626 4.8379C0.790433 4.52413 0.929915 4.22091 1.0897 3.93351L1.21284 3.71993C1.38686 3.42989 1.58224 3.15568 1.79608 2.89596C1.95217 2.70743 2.20925 2.64204 2.44234 2.7164L3.90993 3.18468C4.26326 2.91204 4.65349 2.68529 5.07009 2.51311L5.39968 1.00754C5.45242 0.768127 5.63699 0.57802 5.87956 0.537678C6.24343 0.476796 6.61785 0.445129 6.97644 0.445129C7.38249 0.445129 7.75691 0.476796 8.12077 0.537678C8.36335 0.57802 8.54792 0.768127 8.60066 1.00754L8.93025 2.51311C9.32312 2.68529 9.73708 2.91204 10.0904 3.18468L11.5591 2.7164C11.7911 2.64204 12.0468 2.70743 12.2051 2.89596C12.4186 3.15568 12.6137 3.42989 12.7878 3.71993L12.9117 3.93351C13.0699 4.22091 13.2096 4.52413 13.3257 4.8379ZM7.00017 9.3045C8.1656 9.3045 9.10954 8.36056 9.10954 7.1714C9.10954 6.0297 8.1656 5.06202 7.00017 5.06202C5.83474 5.06202 4.89079 6.0297 4.89079 7.1714C4.89079 8.36056 5.83474 9.3045 7.00017 9.3045Z" fill="#5B5B5B"/>
<path id="Vector_2" opacity="0.4" d="M8.26587 7.19513C8.26587 7.89386 7.69897 8.46075 7.00024 8.46075C6.30151 8.46075 5.73462 7.89386 5.73462 7.19513C5.73462 6.4964 6.30151 5.9295 7.00024 5.9295C7.69897 5.9295 8.26587 6.4964 8.26587 7.19513Z" fill="#5B5B5B"/>
</g>
</svg>
