<svg width="24" height="24" viewBox="0 0 24 24" fill="none" xmlns="http://www.w3.org/2000/svg">
<path d="M12 0C5.38182 0 0 5.38182 0 12C0 18.6182 5.38182 24 12 24C18.6182 24 24 18.6182 24 12C24 5.38182 18.6182 0 12 0ZM18.1818 12.5455H7.16364L12.5455 17.7818C12.7636 18 12.8 18.3273 12.6182 18.5455C12.5091 18.6909 12.3636 18.7273 12.1818 18.7273C12.0364 18.7273 11.8909 18.6909 11.8182 18.5818L5.85455 12.8C5.41818 12.3636 5.41818 11.6727 5.85455 11.2364L11.8182 5.45455C12.0364 5.23636 12.3636 5.23636 12.5818 5.45455C12.8 5.67273 12.8 6 12.5818 6.21818L7.16364 11.4545H18.1818C18.4727 11.4545 18.7273 11.7091 18.7273 12C18.7273 12.2909 18.4727 12.5455 18.1818 12.5455Z" fill="#C8832E"/>
</svg>
