<svg width="12" height="16" viewBox="0 0 12 16" fill="none" xmlns="http://www.w3.org/2000/svg">
<path d="M9.625 6.03125C11.0938 6.875 12 8.1875 12 9.59375C12 10.375 11.3438 11 10.5938 11H6.75V15.25C6.75 15.6875 6.40625 16 6 16C5.5625 16 5.25 15.6875 5.25 15.25V11H1.40625C0.625 11 0 10.375 0 9.59375C0 8.15625 0.875 6.84375 2.375 6.03125L2.71875 1.5H1.75C1.3125 1.5 1 1.1875 1 0.75C1 0.34375 1.3125 0 1.75 0H10.25C10.6562 0 11 0.34375 11 0.75C11 1.1875 10.6562 1.5 10.25 1.5H9.4375L9.625 6.03125ZM6.75 9.5H10.4688C10.4375 8.59375 9.71875 7.71875 8.5625 7.1875L8.15625 7L7.9375 1.5H4.21875L3.8125 7L3.40625 7.1875C2.25 7.71875 1.53125 8.59375 1.5 9.5H5.25V7.25C5.25 6.84375 5.5625 6.5 6 6.5C6.40625 6.5 6.75 6.84375 6.75 7.25V9.5Z" fill="white"/>
</svg>
