<svg width="20" height="20" viewBox="0 0 20 20" fill="none" xmlns="http://www.w3.org/2000/svg">
<path d="M4.21831 10.8873C3.941 11.153 3.93233 11.5921 4.19809 11.8665C4.46439 12.1446 4.9032 12.1509 5.17849 11.8864C5.76951 11.2946 6.52056 10.8324 7.31493 10.5147L6.08726 9.55274C5.40554 9.90515 4.77581 10.35 4.21831 10.8873ZM0.985134 6.95585C0.707102 7.21944 0.69627 7.65808 0.96076 7.93539C1.22253 8.21252 1.66299 8.22425 1.9403 7.95976C2.26154 7.6549 2.61222 7.37759 2.9759 7.11472L1.84066 6.22502C1.54313 6.45611 1.256 6.69876 0.985134 6.95585ZM9.98693 13.2098C9.12033 13.2098 8.39528 13.9608 8.39528 14.8534C8.39528 15.746 9.11947 16.471 10.0126 16.471C10.9058 16.471 11.6306 15.746 11.6306 14.8534C11.6306 13.9608 10.9055 13.2098 9.98693 13.2098ZM11.2782 10.1102C12.6387 10.3442 13.8771 10.9523 14.8485 11.8862C14.9814 12.0168 15.1287 12.0803 15.302 12.0803C15.4835 12.0803 15.6657 12.009 15.8021 11.8673C16.0675 11.5919 16.0584 11.1532 15.7822 10.8869C14.2852 9.41986 12.2256 8.61393 10.0129 8.61393C9.81248 8.61393 9.61863 8.64225 9.42104 8.65547L5.65107 5.70218C7.00874 5.19551 8.49061 4.91647 10.0129 4.91647C13.1096 4.91647 16.0502 6.02599 18.0867 7.9611C18.2196 8.0882 18.3929 8.15175 18.5373 8.15175C18.7206 8.15175 18.9039 8.07953 19.0394 7.93599C19.3038 7.65886 19.293 7.22019 19.015 6.95645C16.7521 4.77839 13.462 3.52992 9.98693 3.52992C8.03132 3.52992 6.11037 3.95137 4.39451 4.71628L1.89035 2.75319C1.58791 2.51713 1.15403 2.56947 0.917193 2.87099C0.681133 3.17256 0.733649 3.60846 1.0347 3.84446L18.1358 17.2481C18.2629 17.3463 18.4131 17.3954 18.5373 17.3954C18.7431 17.3954 18.9463 17.3041 19.083 17.1299C19.319 16.8283 19.2665 16.3924 18.9655 16.1564L11.2782 10.1102Z" fill="#282D31"/>
</svg>
