<svg width="20" height="20" viewBox="0 0 20 20" fill="none" xmlns="http://www.w3.org/2000/svg">
<path d="M9.97573 13.2052C9.11019 13.2052 8.38602 13.9553 8.38602 14.8468C8.38602 15.7383 9.10933 16.4625 9.97573 16.4625C10.8421 16.4625 11.6174 15.7383 11.6174 14.8468C11.6174 13.9553 10.8932 13.2052 9.97573 13.2052ZM19.0177 6.95888C16.7327 4.78407 13.4466 3.53711 10.0017 3.53711C6.55685 3.53711 3.27126 4.78407 0.984872 6.95888C0.707178 7.22215 0.696358 7.66026 0.960527 7.93723C1.22198 8.21403 1.6619 8.22574 1.93888 7.96157C3.9458 6.02987 6.90883 4.92197 10.0017 4.92197C13.0946 4.92197 16.0316 6.03015 18.0657 7.96291C18.1984 8.08985 18.3715 8.15333 18.5157 8.15333C18.6988 8.15333 18.8819 8.0812 19.0172 7.93784C19.3063 7.65997 19.2976 7.22431 19.0177 6.95888ZM10.0017 8.61206C7.79082 8.61206 5.73458 9.4199 4.21412 10.8841C3.93714 11.151 3.92849 11.5895 4.19392 11.8636C4.4599 12.1413 4.89818 12.1476 5.17314 11.8834C6.43567 10.6692 8.14944 9.99981 10.0017 9.99981C11.854 9.99981 13.5677 10.6689 14.8314 11.8841C14.9641 12.0136 15.1113 12.0771 15.2844 12.0771C15.4656 12.0771 15.6476 12.0059 15.7838 11.8643C16.0489 11.5893 16.0399 11.1511 15.764 10.8851C14.2688 9.4199 12.2117 8.61206 10.0017 8.61206Z" fill="#282D31"/>
</svg>
