<svg width="14" height="10" viewBox="0 0 14 10" fill="none" xmlns="http://www.w3.org/2000/svg">
<g id="Group">
<path id="Vector" d="M7.15658 6.8916C6.411 6.90355 5.81641 7.51771 5.82805 8.24409C5.83968 8.97048 6.45415 9.58426 7.19952 9.57232C7.94489 9.56038 8.53969 8.94622 8.52775 8.20085C8.51581 7.45548 7.92009 6.87938 7.15658 6.8916ZM7.12151 3.51667C5.64089 3.54039 4.22165 4.1032 3.12792 5.09961C2.85347 5.35084 2.83287 5.77733 3.08413 6.05389C3.33747 6.32831 3.76396 6.3489 4.03841 6.09768C4.88885 5.32246 5.99154 4.88497 7.14313 4.86652C8.29472 4.84808 9.41296 5.24957 10.2857 5.99761C10.4162 6.10945 10.5773 6.16172 10.7355 6.15918C10.9221 6.15619 11.1068 6.07611 11.2381 5.92308C11.4804 5.63882 11.4482 5.21318 11.1637 4.9709C10.0387 4.01003 8.60424 3.49293 7.12151 3.51667Z" fill="#5A6168"/>
<path id="Vector_2" opacity="0.4" d="M13.6522 2.66736C11.8554 0.999528 9.5183 0.102795 7.06747 0.14205C4.61665 0.181305 2.30923 1.15243 0.56797 2.87693C0.303193 3.1396 0.301386 3.56684 0.563483 3.83163C0.825538 4.09705 1.25275 4.09738 1.51819 3.83612C2.99091 2.34023 4.98839 1.52555 7.08909 1.4919C9.1898 1.45825 11.1747 2.22751 12.7313 3.65678C12.8662 3.77909 13.0338 3.8397 13.2025 3.83699C13.3798 3.83415 13.556 3.76211 13.6862 3.62157C13.9394 3.3484 13.9239 2.90351 13.6522 2.66736Z" fill="#5A6168"/>
</g>
</svg>
